<?xml version="1.0" encoding="UTF-8"?>
<svg version="1.1" xmlns="http://www.w3.org/2000/svg" width="1024" height="1024">
<path d="M0 0 C1.40731056 0.20123518 2.81470395 0.4018917 4.22216797 0.60205078 C88.51363962 12.73557139 167.97883042 47.09206031 251.19140625 116.40234375 C253.34397599 118.39324622 255.52025903 120.3160082 257.7421875 122.2265625 C262.55769663 126.42287794 267.05838705 130.91181907 271.5625 135.4375 C272.37396484 136.24509766 273.18542969 137.05269531 274.02148438 137.88476562 C278.89033575 142.76147633 283.51229591 147.77314464 288 153 C288.99766543 154.12187213 289.99760247 155.241729 291 156.359375 C299.96412226 166.44679482 308.05533557 177.09877452 316 188 C316.53512207 188.72977051 317.07024414 189.45954102 317.62158203 190.21142578 C331.00623693 208.52346871 342.4625727 227.93211067 353 248 C353.46647949 248.88236328 353.93295898 249.76472656 354.41357422 250.67382812 C378.68484122 296.85464977 393.38122006 347.43810715 400.70574951 398.94219971 C400.97749273 400.84259852 401.25999129 402.74145107 401.54345703 404.64013672 C407.03053484 442.78813246 406.68735355 484.90546205 401 523 C400.79876482 524.40731056 400.5981083 525.81470395 400.39794922 527.22216797 C388.20930012 611.89661684 353.60741487 693.56250486 298 759 C297.09236424 760.08196106 296.18481745 761.16399676 295.27734375 762.24609375 C285.23830898 774.15086415 274.60760437 785.46338282 263.625 796.5 C262.98336914 797.14630371 262.34173828 797.79260742 261.68066406 798.45849609 C257.88783752 802.23859503 253.98268848 805.83516245 249.92919922 809.33398438 C248.14911935 810.87122368 246.39191019 812.43013319 244.640625 814 C234.55320518 822.96412226 223.90122548 831.05533557 213 839 C212.27022949 839.53512207 211.54045898 840.07024414 210.78857422 840.62158203 C192.47653129 854.00623693 173.06788933 865.4625727 153 876 C152.11763672 876.46647949 151.23527344 876.93295898 150.32617188 877.41357422 C104.14535023 901.68484122 53.56189285 916.38122006 2.05780029 923.70574951 C0.15740148 923.97749273 -1.74145107 924.25999129 -3.64013672 924.54345703 C-41.78813246 930.03053484 -83.90546205 929.68735355 -122 924 C-123.40731056 923.79876482 -124.81470395 923.5981083 -126.22216797 923.39794922 C-210.89661684 911.20930012 -292.56250486 876.60741487 -358 821 C-359.08196106 820.09236424 -360.16399676 819.18481745 -361.24609375 818.27734375 C-373.15086415 808.23830898 -384.46338282 797.60760437 -395.5 786.625 C-396.46945557 785.66255371 -396.46945557 785.66255371 -397.45849609 784.68066406 C-401.84048126 780.28392473 -405.95345178 775.70534454 -410 771 C-410.94970251 769.91725044 -411.90017749 768.83517774 -412.8515625 767.75390625 C-420.6525597 758.81065496 -427.91790286 749.51985165 -435 740 C-435.54301758 739.27264648 -436.08603516 738.54529297 -436.64550781 737.79589844 C-483.1073197 675.3222916 -511.77716863 601.90459915 -522.70574951 525.05780029 C-522.97749273 523.15740148 -523.25999129 521.25854893 -523.54345703 519.35986328 C-529.03053484 481.21186754 -528.68735355 439.09453795 -523 401 C-522.79876482 399.59268944 -522.5981083 398.18529605 -522.39794922 396.77783203 C-510.26442861 312.48636038 -475.90793969 233.02116958 -406.59765625 149.80859375 C-404.60675378 147.65602401 -402.6839918 145.47974097 -400.7734375 143.2578125 C-396.57712206 138.44230337 -392.08818093 133.94161295 -387.5625 129.4375 C-386.75490234 128.62603516 -385.94730469 127.81457031 -385.11523438 126.97851562 C-380.23918596 122.11032547 -375.23635892 117.47611924 -370 113 C-368.91694995 112.05064018 -367.83487014 111.100172 -366.75390625 110.1484375 C-357.81065496 102.3474403 -348.51985165 95.08209714 -339 88 C-338.27264648 87.45698242 -337.54529297 86.91396484 -336.79589844 86.35449219 C-274.3222916 39.8926803 -200.90459915 11.22283137 -124.05780029 0.29425049 C-122.15740148 0.02250727 -120.25854893 -0.25999129 -118.35986328 -0.54345703 C-80.21186754 -6.03053484 -38.09453795 -5.68735355 0 0 Z " fill="#FEFEFE" transform="translate(580,53)"/>
<path d="M0 0 C1.40731056 0.20123518 2.81470395 0.4018917 4.22216797 0.60205078 C88.51363962 12.73557139 167.97883042 47.09206031 251.19140625 116.40234375 C253.34397599 118.39324622 255.52025903 120.3160082 257.7421875 122.2265625 C262.55769663 126.42287794 267.05838705 130.91181907 271.5625 135.4375 C272.37396484 136.24509766 273.18542969 137.05269531 274.02148438 137.88476562 C278.89033575 142.76147633 283.51229591 147.77314464 288 153 C288.99766543 154.12187213 289.99760247 155.241729 291 156.359375 C299.96412226 166.44679482 308.05533557 177.09877452 316 188 C316.53512207 188.72977051 317.07024414 189.45954102 317.62158203 190.21142578 C331.00623693 208.52346871 342.4625727 227.93211067 353 248 C353.46647949 248.88236328 353.93295898 249.76472656 354.41357422 250.67382812 C378.68484122 296.85464977 393.38122006 347.43810715 400.70574951 398.94219971 C400.97749273 400.84259852 401.25999129 402.74145107 401.54345703 404.64013672 C407.03053484 442.78813246 406.68735355 484.90546205 401 523 C400.79876482 524.40731056 400.5981083 525.81470395 400.39794922 527.22216797 C388.20930012 611.89661684 353.60741487 693.56250486 298 759 C297.09236424 760.08196106 296.18481745 761.16399676 295.27734375 762.24609375 C285.23830898 774.15086415 274.60760437 785.46338282 263.625 796.5 C262.98336914 797.14630371 262.34173828 797.79260742 261.68066406 798.45849609 C257.88783752 802.23859503 253.98268848 805.83516245 249.92919922 809.33398438 C248.14911935 810.87122368 246.39191019 812.43013319 244.640625 814 C234.55320518 822.96412226 223.90122548 831.05533557 213 839 C212.27022949 839.53512207 211.54045898 840.07024414 210.78857422 840.62158203 C192.47653129 854.00623693 173.06788933 865.4625727 153 876 C152.11763672 876.46647949 151.23527344 876.93295898 150.32617188 877.41357422 C104.14535023 901.68484122 53.56189285 916.38122006 2.05780029 923.70574951 C0.15740148 923.97749273 -1.74145107 924.25999129 -3.64013672 924.54345703 C-41.78813246 930.03053484 -83.90546205 929.68735355 -122 924 C-123.40731056 923.79876482 -124.81470395 923.5981083 -126.22216797 923.39794922 C-210.89661684 911.20930012 -292.56250486 876.60741487 -358 821 C-359.08196106 820.09236424 -360.16399676 819.18481745 -361.24609375 818.27734375 C-373.15086415 808.23830898 -384.46338282 797.60760437 -395.5 786.625 C-396.46945557 785.66255371 -396.46945557 785.66255371 -397.45849609 784.68066406 C-401.84048126 780.28392473 -405.95345178 775.70534454 -410 771 C-410.94970251 769.91725044 -411.90017749 768.83517774 -412.8515625 767.75390625 C-420.6525597 758.81065496 -427.91790286 749.51985165 -435 740 C-435.54301758 739.27264648 -436.08603516 738.54529297 -436.64550781 737.79589844 C-483.1073197 675.3222916 -511.77716863 601.90459915 -522.70574951 525.05780029 C-522.97749273 523.15740148 -523.25999129 521.25854893 -523.54345703 519.35986328 C-529.03053484 481.21186754 -528.68735355 439.09453795 -523 401 C-522.79876482 399.59268944 -522.5981083 398.18529605 -522.39794922 396.77783203 C-510.26442861 312.48636038 -475.90793969 233.02116958 -406.59765625 149.80859375 C-404.60675378 147.65602401 -402.6839918 145.47974097 -400.7734375 143.2578125 C-396.57712206 138.44230337 -392.08818093 133.94161295 -387.5625 129.4375 C-386.75490234 128.62603516 -385.94730469 127.81457031 -385.11523438 126.97851562 C-380.23918596 122.11032547 -375.23635892 117.47611924 -370 113 C-368.91694995 112.05064018 -367.83487014 111.100172 -366.75390625 110.1484375 C-357.81065496 102.3474403 -348.51985165 95.08209714 -339 88 C-338.27264648 87.45698242 -337.54529297 86.91396484 -336.79589844 86.35449219 C-274.3222916 39.8926803 -200.90459915 11.22283137 -124.05780029 0.29425049 C-122.15740148 0.02250727 -120.25854893 -0.25999129 -118.35986328 -0.54345703 C-80.21186754 -6.03053484 -38.09453795 -5.68735355 0 0 Z M-114 80 C-115.53599854 80.2168042 -115.53599854 80.2168042 -117.10302734 80.43798828 C-182.8674332 89.89875911 -247.29366002 117.03008924 -299 159 C-300.40185547 160.11568359 -300.40185547 160.11568359 -301.83203125 161.25390625 C-307.47329483 165.79058675 -312.88213176 170.53341566 -318.19921875 175.4453125 C-320.38607974 177.44002253 -322.59666962 179.38589072 -324.8359375 181.3203125 C-329.02699761 184.97805466 -333.0069824 188.81516842 -336.9375 192.75 C-337.63552734 193.44810791 -338.33355469 194.14621582 -339.05273438 194.86547852 C-343.60547963 199.46851572 -347.84545751 204.15609709 -351.8125 209.27734375 C-353.7379957 211.67389822 -355.73345144 213.94214788 -357.79296875 216.22265625 C-361.88760277 220.80366421 -365.64251826 225.57494799 -369.3125 230.5 C-369.95985107 231.36729736 -370.60720215 232.23459473 -371.27416992 233.12817383 C-377.2321643 241.18725754 -382.75738462 249.46092242 -388 258 C-388.41024414 258.66499512 -388.82048828 259.32999023 -389.24316406 260.01513672 C-410.21122509 294.22312544 -425.86517651 330.82153317 -435.23876953 369.84277344 C-435.93906761 372.74728106 -436.66710698 375.64324771 -437.40234375 378.5390625 C-441.18633412 393.83128252 -443.24801516 409.36069115 -445 425 C-445.10602539 425.90322998 -445.21205078 426.80645996 -445.32128906 427.73706055 C-446.42521414 438.63090181 -446.24395801 449.62496721 -446.25 460.5625 C-446.25067474 461.65913971 -446.25134949 462.75577942 -446.25204468 463.88565063 C-446.23583383 480.47753349 -445.620611 496.59040225 -443 513 C-442.81775879 514.21091309 -442.63551758 515.42182617 -442.44775391 516.66943359 C-441.11895029 525.4759491 -439.63914802 534.24595305 -438 543 C-437.82807129 543.91845703 -437.65614258 544.83691406 -437.47900391 545.78320312 C-426.65674684 601.21900348 -399.45499242 656.31994782 -364 700 C-362.88431641 701.40185547 -362.88431641 701.40185547 -361.74609375 702.83203125 C-357.13443116 708.56653343 -352.30180026 714.05321758 -347.31640625 719.46484375 C-345.43270677 721.52643053 -343.61363292 723.61720066 -341.8125 725.75 C-333.64287213 735.14507205 -324.55212309 744.02159834 -315 752 C-313.68128906 753.15242187 -313.68128906 753.15242187 -312.3359375 754.328125 C-298.1280908 766.68881274 -282.9382021 777.87162469 -266.93798828 787.79736328 C-265.13737916 788.91474808 -263.34772846 790.04797221 -261.55859375 791.18359375 C-216.81371839 819.18124825 -165.40623919 837.20808031 -113.125 844.0625 C-111.83980469 844.23587891 -110.55460937 844.40925781 -109.23046875 844.58789062 C-95.12702422 846.45641805 -81.3337472 847.20857329 -67.125 847.1875 C-65.8039325 847.18559662 -65.8039325 847.18559662 -64.45617676 847.18365479 C-35.78378574 847.10537855 -8.1443659 844.36436777 20 839 C21.00788574 838.81099121 22.01577148 838.62198242 23.05419922 838.42724609 C78.35024453 827.71716712 133.46795492 800.34653233 177 765 C177.94617188 764.24460937 178.89234375 763.48921875 179.8671875 762.7109375 C185.24478582 758.37608678 190.44780306 753.88483347 195.55078125 749.23046875 C197.14063551 747.78261105 198.74166323 746.34689357 200.35546875 744.92578125 C210.52161724 735.95369914 220.28614043 726.39788636 229 716 C230.15435547 714.67935547 230.15435547 714.67935547 231.33203125 713.33203125 C244.19548502 698.54376291 255.7480413 682.69820581 266 666 C266.41024414 665.33500488 266.82048828 664.67000977 267.24316406 663.98486328 C313.44141775 588.61550325 333.82931716 496.77881785 321 409 C320.85546387 407.97600098 320.71092773 406.95200195 320.56201172 405.89697266 C311.10233559 340.14017637 283.97514344 275.69570297 242 224 C241.24460937 223.05382812 240.48921875 222.10765625 239.7109375 221.1328125 C235.37608678 215.75521418 230.88483347 210.55219694 226.23046875 205.44921875 C224.78261105 203.85936449 223.34689357 202.25833677 221.92578125 200.64453125 C212.95369914 190.47838276 203.39788636 180.71385957 193 172 C192.11957031 171.23042969 191.23914063 170.46085937 190.33203125 169.66796875 C175.54376291 156.80451498 159.69820581 145.2519587 143 135 C142.33500488 134.58975586 141.67000977 134.17951172 140.98486328 133.75683594 C65.61550325 87.55858225 -26.22118215 67.17068284 -114 80 Z " fill="#000000" transform="translate(580,53)"/>
<path d="M0 0 C3.40676244 2.42911758 6.38462389 5.00179519 9.1875 8.125 C10.1775 9.176875 10.1775 9.176875 11.1875 10.25 C17.50206484 19.32718696 18.91268234 27.3631997 18.78877258 38.27958679 C18.79095714 39.68326786 18.79534271 41.0869469 18.80171841 42.49061519 C18.81282631 46.31976016 18.79300012 50.14819745 18.76782811 53.97725236 C18.74613656 58.11683724 18.75354965 62.2563856 18.75733948 66.39601135 C18.759955 73.55885378 18.74433308 80.72146761 18.71615028 87.88425255 C18.67543002 98.24026182 18.66248436 108.59616111 18.65621033 118.95224176 C18.6452805 135.75622831 18.61204195 152.56009316 18.56469727 169.36401367 C18.51876769 185.6826924 18.48339242 202.00133801 18.4621582 218.32006836 C18.46084459 219.32678291 18.45953097 220.33349745 18.45817754 221.3707185 C18.45165212 226.4213574 18.44533364 231.47199653 18.43911803 236.52263582 C18.38732588 278.39017518 18.29929638 320.25758061 18.1875 362.125 C18.77958252 362.41004395 19.37166504 362.69508789 19.98168945 362.98876953 C23.30496447 364.70061479 26.31107358 366.8700116 29.375 369 C30.0769751 369.4854126 30.7789502 369.9708252 31.50219727 370.47094727 C38.71652099 375.4701575 45.88461741 380.53481149 53.04638672 385.60888672 C55.88362001 387.61791964 58.72389649 389.62262292 61.56445312 391.62695312 C63.69046572 393.12709265 65.81593515 394.62799966 67.94140625 396.12890625 C70.75983432 398.11857532 73.58029459 400.1053144 76.40234375 402.08984375 C83.65985112 407.19732086 90.88329586 412.34545023 98.0625 417.5625 C104.20251637 422.02101259 110.40990436 426.36254591 116.6875 430.625 C123.72742208 435.40506969 130.66384066 440.30647202 137.54541016 445.31152344 C142.68450213 449.0480174 147.86192239 452.72468426 153.0625 456.375 C155.77373575 458.2875892 158.48143647 460.20510172 161.1875 462.125 C161.77853516 462.54265625 162.36957031 462.9603125 162.97851562 463.390625 C174.67447049 471.70055372 181.60359716 479.37329147 186.1875 493.125 C187.26971417 505.4622415 185.33973376 515.70350146 178 526 C170.43809272 534.88198161 160.50323211 540.16013635 148.921875 541.50390625 C130.88110667 542.16654111 117.89718667 530.7228852 104.06640625 520.65234375 C99.14920073 517.081693 94.17449007 513.59723654 89.1875 510.125 C82.78665149 505.66623132 76.43275279 501.15197215 70.125 496.5625 C64.04833351 492.14407877 57.90332019 487.84529809 51.6875 483.625 C44.64400914 478.84253373 37.70565304 473.93662895 30.81860352 468.93188477 C23.6930938 463.75459197 16.50096918 458.67531348 9.29638672 453.60888672 C5.04707924 450.61892482 0.80419567 447.61985255 -3.43994141 444.62255859 C-6.96701319 442.13214626 -10.495515 439.6438188 -14.02734375 437.16015625 C-17.5578131 434.67711254 -21.07999984 432.18257599 -24.60058594 429.68554688 C-26.92645572 428.0446021 -29.2637739 426.42078463 -31.6015625 424.796875 C-44.94528166 415.46101542 -53.0970639 407.65132801 -58.8125 392.125 C-59.16231884 391.19730065 -59.51213769 390.2696013 -59.8725571 389.31378984 C-60.85983677 385.96440832 -61.06844428 383.2569509 -61.07814884 379.77233124 C-61.08644783 378.50802953 -61.09474682 377.24372783 -61.10329729 375.94111395 C-61.10242786 374.54566275 -61.10135927 373.15021166 -61.10011292 371.75476074 C-61.10599951 370.26637887 -61.11273925 368.77800017 -61.12025779 367.28962564 C-61.13830997 363.20283079 -61.1438495 359.11610047 -61.14724457 355.02927065 C-61.15300776 350.62004699 -61.17013425 346.21086459 -61.18559265 341.80166626 C-61.22032759 331.155149 -61.23592955 320.50863521 -61.24971595 309.86207366 C-61.25668103 304.8450431 -61.26583709 299.82801665 -61.27482414 294.81098938 C-61.30402653 278.12758766 -61.32881889 261.44418995 -61.33944798 244.76076508 C-61.34013867 243.6932224 -61.34082936 242.62567972 -61.34154099 241.52578726 C-61.342233 240.45572112 -61.34292502 239.38565498 -61.343638 238.28316259 C-61.34504998 236.11488183 -61.3464708 233.94660107 -61.34790039 231.77832031 C-61.34895815 230.16501452 -61.34895815 230.16501452 -61.35003727 228.5191167 C-61.36228097 211.10156448 -61.40506223 193.68423022 -61.46084059 176.2667684 C-61.51767496 158.3738882 -61.54810207 140.48111806 -61.55246013 122.58814669 C-61.55553828 112.54621885 -61.56997132 102.50459372 -61.61374092 92.4627533 C-61.65091761 83.9095556 -61.66398339 75.35674259 -61.64603604 66.80347568 C-61.63760608 62.44302969 -61.64029317 58.08336846 -61.67385483 53.72302628 C-61.70437152 49.72270219 -61.70191294 45.72373763 -61.67436682 41.72340447 C-61.67005677 40.28456729 -61.67732269 38.84563297 -61.69803984 37.40693849 C-61.87146776 24.54826058 -58.23303577 14.93534598 -49.8125 5.125 C-35.48113128 -7.16267977 -16.35931606 -10.4398267 0 0 Z " fill="#000000" transform="translate(537.8125,140.875)"/>
</svg>
